<svg width="19" height="18" viewBox="0 0 19 18" fill="none" xmlns="http://www.w3.org/2000/svg">
    <path fill-rule="evenodd" clip-rule="evenodd"
        d="M13.9301 13.959C12.4527 15.4186 10.4205 16.32 8.17722 16.32C3.66106 16.32 0 12.6666 0 8.16C0 3.65336 3.66106 0 8.17722 0C12.6934 0 16.3544 3.65336 16.3544 8.16C16.3544 9.91095 15.8018 11.5331 14.8611 12.8622C14.8888 12.8829 14.9154 12.9057 14.9406 12.9309L18.7887 16.7709C19.0704 17.0521 19.0704 17.5079 18.7887 17.7891C18.5069 18.0703 18.0501 18.0703 17.7683 17.7891L13.9301 13.959ZM14.9114 8.16C14.9114 11.8714 11.8964 14.88 8.17722 14.88C4.45803 14.88 1.44304 11.8714 1.44304 8.16C1.44304 4.44865 4.45803 1.44 8.17722 1.44C11.8964 1.44 14.9114 4.44865 14.9114 8.16Z"
        fill="#696969" />
</svg>
