<svg width="130" height="53" viewBox="0 0 130 53" fill="none" xmlns="http://www.w3.org/2000/svg">
    <g clip-path="url(#clip0)">
        <path
            d="M10.3789 52.2428L16.1755 34.495H10.828L0 0.624023H8.8301L17.8527 29.2667L27.196 0.624023H36.0261L19.012 52.2428H10.3789Z"
            fill="white" />
        <path
            d="M55.4268 37.6072C53.1494 37.6072 51.0232 37.3061 49.0482 36.7041C47.0733 36.102 45.3641 35.19 43.9252 33.9637C42.4864 32.7419 41.3454 31.1924 40.5114 29.3242C39.6729 27.4561 39.2559 25.278 39.2559 22.7856V0.624023H47.7652V21.67C47.7652 24.6183 48.4113 26.7654 49.6989 28.1157C50.9866 29.4659 52.8974 30.1388 55.436 30.1388C57.97 30.1388 59.8854 29.4659 61.173 28.1157C62.4607 26.7654 63.1068 24.6183 63.1068 21.67V0.624023H71.6161V22.79C71.6161 25.2824 71.1991 27.4605 70.3605 29.3287C69.522 31.1969 68.3856 32.7419 66.9467 33.9682C65.5079 35.19 63.7987 36.1064 61.8237 36.7085C59.8304 37.3061 57.7042 37.6072 55.4268 37.6072Z"
            fill="white" />
        <path
            d="M79.0166 36.9876V0.624207H87.5214V3.9843C87.9109 3.52832 88.3691 3.05906 88.9098 2.58094C89.4459 2.10282 90.0599 1.67783 90.7473 1.30596C91.4346 0.934096 92.1632 0.61978 92.9376 0.371868C93.712 0.123956 94.5277 0 95.3846 0C97.6208 0 99.5407 0.447127 101.154 1.33695C102.767 2.23121 104.192 3.56816 105.438 5.35224C106.685 3.69212 108.284 2.38615 110.24 1.42992C112.197 0.473689 114.332 0 116.656 0C118.461 0 120.17 0.301036 121.779 0.903107C123.392 1.50518 124.808 2.41714 126.031 3.64342C127.255 4.8697 128.221 6.41472 128.932 8.28291C129.642 10.1511 129.995 12.3292 129.995 14.8216V36.9876H121.485V15.5033C121.485 13.0951 120.991 11.156 120.005 9.68184C119.016 8.20765 117.361 7.47277 115.043 7.47277C112.894 7.47277 111.294 8.1988 110.24 9.65085C109.186 11.1029 108.66 13.0552 108.66 15.5033V36.9876H100.347V15.5033C100.347 13.0951 99.8752 11.156 98.9313 9.68184C97.9873 8.20765 96.3744 7.47277 94.097 7.47277C91.9479 7.47277 90.3166 8.1988 89.1985 9.65085C88.0804 11.1029 87.5214 13.0552 87.5214 15.5033V36.9876H79.0166Z"
            fill="white" />
    </g>
    <defs>
        <clipPath id="clip0">
            <rect width="130" height="52.243" fill="white" />
        </clipPath>
    </defs>
</svg>
