<svg width="328" height="48" viewBox="0 0 328 48" fill="none" xmlns="http://www.w3.org/2000/svg">
<rect width="328" height="48" rx="4" fill="#FFD74A"/>
<path d="M149.862 29.7474V27.2834H154.374V25.9554H145.718V23.9394H154.054V19.3634H144.07V20.6914H152.422V22.6274H144.102V27.2834H148.214V29.7474H142.518V31.1074H155.606V29.7474H149.862ZM166.581 21.3474C166.581 23.2194 166.581 25.3474 166.021 28.1954L167.685 28.3714C168.229 25.3154 168.229 23.2834 168.229 21.3474V19.7954H158.229V21.1234H166.581V21.3474ZM156.837 29.4274V30.7874H169.909V29.4274H156.837ZM183.059 18.3554H181.411V28.8514H183.059V18.3554ZM173.043 22.9314C173.043 21.6034 173.987 20.7394 175.267 20.7394C176.531 20.7394 177.491 21.6034 177.491 22.9314C177.491 24.2434 176.531 25.1234 175.267 25.1234C173.987 25.1234 173.043 24.2434 173.043 22.9314ZM179.091 22.9314C179.091 20.8194 177.443 19.3154 175.267 19.3154C173.091 19.3154 171.427 20.8194 171.427 22.9314C171.427 25.0274 173.091 26.5474 175.267 26.5474C177.443 26.5474 179.091 25.0274 179.091 22.9314ZM175.283 31.1874V27.7954H173.619V32.5314H183.475V31.1874H175.283Z" fill="white"/>
</svg>
