<svg width="43" height="13" viewBox="0 0 43 13" fill="none" xmlns="http://www.w3.org/2000/svg">
    <path
        d="M9.43787 2.992H3.13787V1.324H9.32987V0.532H2.15387V3.784H9.43787V2.992ZM10.5899 5.44V4.648H0.845874V5.44H5.23787V6.496H2.02187V7.252H8.36987V8.2H2.05787V10.756H9.66587V10H3.01787V8.92H9.34187V6.496H6.22187V5.44H10.5899ZM12.8649 4.888H16.6809V1.12H11.8689V1.924H15.7209V4.096H11.8929V8.308H12.7209C14.6649 8.308 16.0329 8.248 17.6529 7.96L17.5569 7.144C16.0089 7.42 14.7009 7.492 12.8649 7.492V4.888ZM19.3689 0.111999V4.264H17.3169V5.068H19.3689V10.9H20.3529V0.111999H19.3689ZM24.26 3.616H29.756V5.596H24.26V3.616ZM27.5 8.704V6.388H30.716V0.891999H29.756V2.812H24.26V0.891999H23.288V6.388H26.504V8.704H22.136V9.508H31.892V8.704H27.5ZM33.4111 1.288V2.08H37.4551C37.2511 4.636 35.8111 6.7 32.9191 8.08L33.4471 8.884C37.0231 7.132 38.4511 4.396 38.4511 1.288H33.4111ZM40.6231 0.124V10.888H41.6071V0.124H40.6231Z"
        fill="white" />
    <path d="M0.221874 11.8H42.7791V12.4H0.221874V11.8Z" fill="white" />
</svg>
