<svg width="328" height="48" viewBox="0 0 328 48" fill="none" xmlns="http://www.w3.org/2000/svg">
    <rect x="0.5" y="0.5" width="327" height="47" rx="3.5" stroke="white" />
    <path
        d="M144.462 20.0354H140.926V18.3874H139.278V20.0354H135.726V21.3634H144.462V20.0354ZM138.142 24.7554C138.142 23.8754 138.942 23.3314 140.11 23.3314C141.262 23.3314 142.062 23.8754 142.062 24.7554C142.062 25.6514 141.262 26.1954 140.11 26.1954C138.942 26.1954 138.142 25.6514 138.142 24.7554ZM140.926 27.3954C142.558 27.1394 143.63 26.1634 143.63 24.7554C143.63 23.1394 142.19 22.0674 140.11 22.0674C138.014 22.0674 136.574 23.1394 136.574 24.7554C136.574 26.1474 137.646 27.1394 139.278 27.3954V28.8034C137.918 28.8514 136.59 28.8514 135.438 28.8514L135.646 30.2114C138.27 30.2114 141.694 30.1634 144.878 29.6194L144.766 28.4194C143.534 28.5954 142.222 28.6754 140.926 28.7554V27.3954ZM145.582 18.3394V32.8034H147.246V18.3394H145.582ZM157.165 26.8354V27.9874H159.997V29.3314H161.645V18.3394H159.997V26.8354H157.165ZM154.285 20.1154C155.469 20.1154 156.285 20.6274 156.285 21.4434C156.285 22.2594 155.469 22.7714 154.285 22.7714C153.085 22.7714 152.269 22.2594 152.269 21.4434C152.269 20.6274 153.085 20.1154 154.285 20.1154ZM154.285 23.9874C156.397 23.9874 157.853 22.9794 157.853 21.4434C157.853 19.9074 156.397 18.8994 154.285 18.8994C152.157 18.8994 150.701 19.9074 150.701 21.4434C150.701 22.9794 152.157 23.9874 154.285 23.9874ZM153.629 28.8674H155.277V26.0834C156.509 26.0034 157.773 25.8754 158.989 25.6674L158.861 24.4834C155.805 24.8674 152.253 24.8994 149.597 24.9154L149.805 26.2594C150.957 26.2594 152.253 26.2434 153.629 26.1794V28.8674ZM153.197 31.1874V28.2594H151.549V32.5314H161.981V31.1874H153.197ZM164.7 19.8754V21.2194H169.756C169.42 24.5474 167.516 27.0914 163.98 28.8994L164.892 30.1634C169.612 27.7794 171.404 24.0674 171.404 19.8754H164.7ZM177.372 24.0514H175.18V18.3394H173.532V32.7874H175.18V25.4274H177.372V24.0514ZM188.571 18.3554V26.1154H190.219V18.3554H188.571ZM180.779 26.7874V32.6274H190.219V26.7874H188.587V28.3874H182.411V26.7874H180.779ZM182.411 29.6674H188.587V31.2994H182.411V29.6674ZM182.427 19.0114C180.219 19.0114 178.587 20.3874 178.587 22.3714C178.587 24.3554 180.219 25.7314 182.427 25.7314C184.635 25.7314 186.251 24.3554 186.251 22.3714C186.251 20.3874 184.635 19.0114 182.427 19.0114ZM182.427 20.3714C183.723 20.3714 184.651 21.1714 184.651 22.3714C184.651 23.5874 183.723 24.3714 182.427 24.3714C181.115 24.3714 180.203 23.5874 180.203 22.3714C180.203 21.1714 181.115 20.3714 182.427 20.3714Z"
        fill="white" />
</svg>
