<svg width="267" height="19" viewBox="0 0 267 19" fill="none" xmlns="http://www.w3.org/2000/svg">
    <path
        d="M1.94477 1.752H0.486766V12.246H1.76477C4.23077 12.246 6.69677 12.066 9.45077 11.508L9.27077 10.284C6.66077 10.806 4.26677 11.004 1.94477 11.004V1.752ZM14.8508 6.63H12.2588V0.186H10.7828V16.332H12.2588V7.854H14.8508V6.63ZM28.0394 7.926H23.5034V2.814H28.0394V7.926ZM29.4794 1.626H22.0634V9.096H29.4794V1.626ZM25.3574 10.896H23.8814V15.972H34.6454V14.766H25.3574V10.896ZM33.9254 5.1V0.167999H32.4494V11.994H33.9254V6.342H36.3014V5.1H33.9254ZM48.194 1.374C45.692 1.374 43.874 2.904 43.874 5.172C43.874 7.422 45.692 8.97 48.194 8.97C50.714 8.97 52.514 7.422 52.514 5.172C52.514 2.904 50.714 1.374 48.194 1.374ZM48.194 2.634C49.868 2.634 51.074 3.66 51.074 5.172C51.074 6.666 49.868 7.71 48.194 7.71C46.538 7.71 45.314 6.666 45.314 5.172C45.314 3.66 46.538 2.634 48.194 2.634ZM54.638 0.186V16.368H56.114V0.186H54.638ZM43.244 12.822C46.16 12.822 50.066 12.786 53.702 12.12L53.576 11.022C50.048 11.562 45.998 11.58 43.064 11.58L43.244 12.822ZM80.0199 7.386H75.6459V2.598H80.0199V7.386ZM81.4779 1.428H74.2059V8.574H81.4779V1.428ZM81.9279 10.122H80.4699V10.626C80.4699 12.912 77.9499 14.622 75.0699 15.108L75.6639 16.26C78.0579 15.81 80.2359 14.604 81.2079 12.768C82.1619 14.604 84.3219 15.81 86.7159 16.26L87.3099 15.108C84.4299 14.622 81.9279 12.912 81.9279 10.626V10.122ZM86.0679 4.596V0.186H84.5919V10.914H86.0679V5.82H88.4439V4.596H86.0679ZM104.981 7.548C102.605 6.81 100.913 4.92 100.913 2.796V2.436H104.567V1.23H95.7105V2.436H99.4005V2.796C99.4005 5.01 97.7445 7.026 95.2965 7.8L96.0525 8.97C97.9785 8.304 99.4725 6.9 100.175 5.118C100.913 6.792 102.407 8.088 104.261 8.682L104.981 7.548ZM106.889 14.91H99.4005V12.822H106.889V14.91ZM106.889 11.67H99.4005V9.708H97.9425V16.116H108.347V9.708H106.889V11.67ZM106.871 0.186V8.934H108.347V0.186H106.871ZM128.095 7.44H134.053V1.68H126.565V2.886H132.559V6.252H126.619V12.444H127.951C130.723 12.444 133.171 12.336 136.087 11.85L135.943 10.644C133.117 11.094 130.741 11.22 128.095 11.22V7.44ZM137.455 0.167999V16.35H138.931V0.167999H137.455ZM161.155 8.304C158.329 7.764 155.269 5.316 155.269 2.562V1.32H153.721V2.562C153.721 5.316 150.679 7.746 147.853 8.304L148.519 9.528C150.949 8.952 153.469 7.224 154.495 4.866C155.521 7.242 158.041 8.97 160.489 9.528L161.155 8.304ZM147.241 12.948V14.172H161.875V12.948H147.241ZM181.76 8.898H172.166V6.342H181.238V5.172H172.166V2.778H181.598V1.59H170.672V10.086H181.76V8.898ZM168.782 13.038V14.244H183.434V13.038H168.782ZM190.754 18.42C192.374 17.736 193.382 16.386 193.382 14.658C193.382 13.452 192.86 12.714 191.996 12.714C191.33 12.714 190.754 13.164 190.754 13.866C190.754 14.622 191.33 15.018 191.96 15.018C192.032 15.018 192.086 15.018 192.158 15C192.158 16.062 191.492 16.944 190.358 17.448L190.754 18.42ZM211.139 4.956C211.139 3.426 212.291 2.382 213.893 2.382C215.513 2.382 216.683 3.426 216.683 4.956C216.683 6.45 215.513 7.512 213.893 7.512C212.291 7.512 211.139 6.45 211.139 4.956ZM218.123 4.956C218.123 2.706 216.341 1.158 213.893 1.158C211.463 1.158 209.699 2.706 209.699 4.956C209.699 7.188 211.463 8.754 213.893 8.754C216.341 8.754 218.123 7.188 218.123 4.956ZM213.227 11.472H220.463V14.928H213.227V11.472ZM211.787 16.116H221.921V10.302H211.787V16.116ZM224.261 3.714V2.49H221.921V0.204H220.445V9.528H221.921V7.242H224.261V6.018H221.921V3.714H224.261ZM244.866 8.304C242.04 7.764 238.98 5.316 238.98 2.562V1.32H237.432V2.562C237.432 5.316 234.39 7.746 231.564 8.304L232.23 9.528C234.66 8.952 237.18 7.224 238.206 4.866C239.232 7.242 241.752 8.97 244.2 9.528L244.866 8.304ZM230.952 12.948V14.172H245.586V12.948H230.952ZM260.071 7.494C258.379 7.836 256.939 7.926 254.635 7.926V5.73H259.261V4.596H254.635V2.562H259.441V1.374H253.213V9.132H254.239C256.831 9.132 258.361 9.06 260.215 8.682L260.071 7.494ZM255.283 12.012H264.661V16.332H266.137V10.824H255.283V12.012ZM264.715 0.204V4.398H262.555V0.491999H261.151V9.87H262.555V5.604H264.715V9.978H266.137V0.204H264.715Z"
        fill="white" />
</svg>
